<?xml version="1.0" standalone="no"?><!DOCTYPE svg PUBLIC "-//W3C//DTD SVG 1.1//EN" "http://www.w3.org/Graphics/SVG/1.1/DTD/svg11.dtd"><svg t="1724838748725" class="icon" viewBox="0 0 1638 1024" version="1.1" xmlns="http://www.w3.org/2000/svg" p-id="1877" width="25.59375" height="16" xmlns:xlink="http://www.w3.org/1999/xlink"><path d="M1005.211009 782.633733c99.726182-67.206775 99.726182-140.917431 99.726182-140.917431V300.623853H1206.831334l1.445307 372.166549s-0.722653 48.417784-42.636556 109.120678h-160.429076z m-568.005646 0c-41.913903-60.702893-42.636556-109.120677-42.636556-109.120677l1.445307-372.166549h101.894143v341.092449s0 72.988003 99.726182 140.917431H437.205363z" fill="#FCCCCC" p-id="1878"></path><path d="M1106.382498 278.221595l-304.959774-122.12844-304.959774 122.12844H394.568807v-72.265349l406.853917-171.268878 406.853917 171.268878v72.265349h-101.894143z m-476.228652 528.259704c42.636556 23.124912 97.558222 44.804517 171.268878 60.702893 73.710656-16.62103 128.632322-37.577982 171.268878-60.702893h178.495413c-53.476359 65.761468-154.647848 139.472124-349.764291 182.831333-195.116443-43.35921-296.287932-117.792519-349.764291-182.831333h178.495413z" fill="#EE0101" p-id="1879"></path><path d="M472.615385 377.947777c-37.577982-31.796754-93.944954-47.695131-170.546225-47.695131h-144.530698L65.038814 765.290049h182.108681c48.417784 0 89.609033-5.058574 122.12844-14.453069 32.519407-9.394495 61.425547-25.292872 85.273112-46.249824 23.847565-20.234298 41.913903-46.249824 54.921666-78.046577 13.007763-31.796754 19.511644-66.484121 19.511644-103.33945-0.722653-65.038814-18.788991-113.456598-56.366972-145.253352zM396.736768 586.794637c-8.671842 21.679605-20.956951 40.468596-36.855328 56.366972-13.007763 13.007763-28.183486 22.402258-45.52717 28.183486-17.343684 5.781228-39.023289 8.671842-65.038815 8.671842h-49.140437l56.366972-265.213832h44.081863c34.687368 0 61.425547 9.394495 80.214538 27.460833 18.788991 18.066337 28.183486 44.081863 28.183486 77.323924 0.722653 23.124912-3.613267 45.52717-12.285109 67.206775z m536.931545-36.132675c-4.335921 19.511644-7.949188 36.855328-10.117149 51.308398-2.16796 14.45307-4.335921 28.183486-5.058574 39.745942h-5.058574c-1.445307-13.007763-3.613267-26.015526-7.226535-40.468596-3.613267-13.730416-7.949188-31.0741-13.730417-50.585744l-67.929428-220.409316H681.462244l-92.499647 435.037403h106.230064l48.417784-227.63585c2.890614-13.007763 5.058574-26.015526 7.226535-40.468596 2.16796-14.45307 4.335921-29.628793 6.503881-45.52717h4.335921c1.445307 13.007763 2.890614 24.570219 5.781228 36.132675 2.16796 11.562456 5.058574 23.124912 8.671842 33.964714l74.43331 243.534227h143.085391l92.499647-435.037403h-106.230063l-46.249824 220.409316z m454.549048-135.136203c13.730416-7.949188 33.964714-11.562456 59.257586-11.562456 17.343684 0 33.964714 1.445307 49.863091 5.058574 16.62103 3.613267 32.519407 8.671842 48.417784 15.898377l26.738179-84.550459c-17.343684-6.503881-38.300635-10.839802-62.870854-14.45307-24.570219-3.613267-52.031052-5.058574-82.382498-5.058574-54.921665 0-99.003529 13.007763-132.245589 39.023289-33.964714 26.015526-50.585745 60.702893-50.585745 102.616796 0 23.847565 5.781228 44.081863 18.066338 61.425547 12.285109 16.62103 30.351447 30.351447 54.921665 41.191249 6.503881 2.890614 15.175723 6.503881 26.73818 10.839802 45.52717 18.066337 67.929428 37.577982 67.929428 58.534933 0 16.62103-8.671842 30.351447-26.015526 39.745942-17.343684 10.117149-40.468596 14.45307-70.097389 14.45307-16.62103 0-33.242061-2.16796-49.863091-6.503881-17.343684-4.335921-34.687368-11.562456-52.753705-20.234298l-25.292872 89.609033c22.402258 7.949188 45.52717 13.730416 70.097389 18.066337 23.847565 4.335921 49.140438 5.781228 75.878617 5.781228 62.1482 0 111.288638-14.45307 148.143966-42.636556 36.132675-28.183486 54.199012-66.484121 54.199012-113.456598 0-26.015526-6.503881-46.972477-19.511645-64.316161-13.007763-16.62103-37.577982-33.964714-73.710656-51.308398-7.226535-3.613267-16.62103-7.949188-29.628793-13.007763-31.0741-13.007763-46.249824-27.460833-46.249824-42.636556 0-13.730416 7.226535-25.292872 20.956952-32.519407z" fill="#18273D" p-id="1880"></path></svg>